<?xml version="1.0" encoding="UTF-8" standalone="no"?>
<!DOCTYPE svg PUBLIC "-//W3C//DTD SVG 1.1//EN" "http://www.w3.org/Graphics/SVG/1.1/DTD/svg11.dtd">
<svg xmlns="http://www.w3.org/2000/svg" version="1.1" viewBox="0 0 1024 344">
<g stroke-width="2.00" fill="none" stroke-linecap="butt">
<path stroke="#bdc42b" vector-effect="non-scaling-stroke" d="
  M 500.00 40.79
  Q 498.06 43.42 499.21 46.44"
/>
<path stroke="#4c7843" vector-effect="non-scaling-stroke" d="
  M 369.14 148.87
  C 380.48 119.78 405.42 103.44 432.21 88.00"
/>
<path stroke="#bdc42b" vector-effect="non-scaling-stroke" d="
  M 432.21 88.00
  Q 434.51 89.14 435.50 86.79"
/>
<path stroke="#7d7630" vector-effect="non-scaling-stroke" d="
  M 434.80 86.27
  L 432.21 88.00"
/>
<path stroke="#7d7630" vector-effect="non-scaling-stroke" d="
  M 450.46 43.25
  Q 436.85 57.13 419.84 66.65
  C 409.92 72.21 398.24 77.84 390.43 84.50
  C 373.53 98.92 365.12 120.92 365.63 143.00"
/>
<path stroke="#82919f" vector-effect="non-scaling-stroke" d="
  M 573.41 164.63
  L 571.32 162.25"
/>
<path stroke="#f3dd88" vector-effect="non-scaling-stroke" d="
  M 548.75 158.79
  Q 546.26 159.42 544.50 157.54"
/>
<path stroke="#f3dd88" vector-effect="non-scaling-stroke" d="
  M 553.53 160.77
  L 560.30 165.89"
/>
<path stroke="#7c7c7c" vector-effect="non-scaling-stroke" d="
  M 220.16 291.16
  C 221.22 300.59 234.63 299.61 234.77 290.65
  Q 234.85 285.72 234.56 280.79
  A 1.00 0.97 -66.6 0 0 234.35 280.24
  Q 232.59 277.97 230.18 277.59
  C 220.87 276.12 219.36 284.04 220.16 291.16"
/>
<path stroke="#7c7c7c" vector-effect="non-scaling-stroke" d="
  M 581.39 295.57
  C 584.80 301.58 595.49 296.50 593.65 289.04
  A 0.99 0.99 0.0 0 0 592.70 288.28
  C 589.63 288.22 577.94 289.48 581.39 295.57"
/>
<path stroke="#7c7c7c" vector-effect="non-scaling-stroke" d="
  M 189.81 285.22
  L 202.88 285.26
  A 1.00 1.00 0.0 0 0 203.87 284.11
  Q 202.84 277.23 196.52 277.39
  Q 193.34 277.47 191.33 279.22
  Q 189.25 281.05 188.82 284.09
  A 1.00 0.99 4.0 0 0 189.81 285.22"
/>
<path stroke="#7c7c7c" vector-effect="non-scaling-stroke" d="
  M 298.63 291.31
  C 294.27 300.17 310.20 299.84 310.53 292.32
  Q 310.60 290.70 310.38 289.06
  A 0.99 0.98 -3.9 0 0 309.39 288.20
  Q 303.86 288.23 299.05 290.87
  A 0.99 0.97 89.3 0 0 298.63 291.31"
/>
<path stroke="#7c7c7c" vector-effect="non-scaling-stroke" d="
  M 406.54 277.55
  Q 399.51 276.40 397.63 284.00
  A 1.00 1.00 0.0 0 0 398.60 285.24
  L 411.62 285.25
  A 1.00 0.99 -1.1 0 0 412.62 284.22
  C 412.48 280.49 410.27 278.16 406.54 277.55"
/>
<path stroke="#7c7c7c" vector-effect="non-scaling-stroke" d="
  M 868.54 279.87
  C 864.09 274.47 856.91 277.76 855.02 283.96
  A 1.00 1.00 0.0 0 0 855.98 285.25
  L 869.01 285.25
  A 1.00 1.00 0.0 0 0 870.01 284.25
  Q 870.02 281.67 868.54 279.87"
/>
</g>
<path fill="#8cc63e" d="
  M 500.00 40.79
  Q 498.06 43.42 499.21 46.44
  Q 495.59 71.82 480.30 91.78
  C 475.85 97.59 469.59 103.29 463.98 108.69
  C 461.75 110.84 458.72 111.78 456.55 114.57
  A 0.99 0.98 14.3 0 1 455.92 114.94
  L 453.96 115.26
  A 1.00 1.00 0.0 0 0 453.16 115.96
  Q 452.88 116.90 451.86 117.04
  A 1.01 0.99 -87.0 0 0 451.02 117.81
  L 450.93 118.24
  A 1.01 1.00 12.7 0 1 449.73 118.99
  Q 447.71 118.54 447.05 120.31
  A 1.01 1.01 0.0 0 1 446.26 120.95
  L 443.41 121.38
  A 1.03 1.01 -78.0 0 0 442.70 121.85
  Q 441.79 123.34 440.09 123.27
  A 1.01 0.99 6.8 0 0 439.07 124.06
  L 439.00 124.35
  A 0.78 0.78 0.0 0 1 438.27 124.98
  C 435.60 125.14 433.39 126.48 430.15 125.98
  C 427.39 125.55 417.22 124.62 414.55 126.84
  A 1.00 0.97 -61.8 0 1 413.82 127.07
  Q 407.99 126.55 402.54 128.29
  C 399.97 129.11 396.77 129.28 394.12 131.10
  A 1.03 1.02 -55.6 0 1 393.34 131.25
  Q 392.13 130.98 392.01 132.09
  A 1.00 1.00 0.0 0 1 390.91 132.99
  Q 388.60 132.74 387.02 134.60
  A 1.01 0.97 -69.1 0 1 386.27 134.95
  Q 383.15 135.00 382.93 138.07
  A 1.00 0.99 1.8 0 1 381.93 139.00
  L 380.35 139.00
  A 1.00 0.99 8.1 0 0 379.39 139.71
  Q 379.05 140.86 377.90 141.08
  A 0.99 0.98 -89.5 0 0 377.11 141.86
  Q 376.76 143.52 375.17 143.29
  A 1.02 1.00 -73.3 0 0 374.12 143.87
  L 373.00 146.29
  A 0.96 0.96 0.0 0 1 372.62 146.73
  L 369.14 148.87
  C 380.48 119.78 405.42 103.44 432.21 88.00
  Q 434.51 89.14 435.50 86.79
  Q 439.43 87.19 443.32 84.31
  Q 443.41 84.24 443.52 84.19
  Q 450.29 81.33 454.48 78.46
  C 456.17 77.30 459.51 76.01 461.18 73.45
  A 1.00 0.99 -67.8 0 1 462.21 73.01
  Q 464.13 73.39 464.86 71.57
  A 1.01 1.00 1.2 0 1 465.47 70.99
  L 466.23 70.73
  A 0.99 0.98 -0.7 0 0 466.86 70.09
  Q 467.18 69.09 468.13 68.88
  A 1.01 1.01 0.0 0 0 468.90 68.11
  L 468.96 67.80
  A 1.01 1.00 4.5 0 1 469.89 67.01
  Q 470.96 66.95 471.02 65.95
  A 1.00 1.00 0.0 0 1 472.02 65.00
  L 473.74 65.00
  A 1.00 1.00 0.0 0 0 474.63 64.46
  L 477.13 59.60
  A 1.01 1.00 12.6 0 1 477.99 59.06
  C 482.27 58.92 479.77 53.83 484.08 52.68
  A 1.00 1.00 0.0 0 0 484.82 51.65
  Q 484.69 49.46 486.86 48.60
  A 0.99 0.94 -81.1 0 0 487.29 48.27
  Q 492.95 40.75 497.18 32.38
  Q 498.08 30.60 498.97 32.38
  Q 500.90 36.26 500.00 40.79
  Z"
/>
<path fill="#eec218" d="
  M 450.46 43.25
  Q 436.85 57.13 419.84 66.65
  C 409.92 72.21 398.24 77.84 390.43 84.50
  C 373.53 98.92 365.12 120.92 365.63 143.00
  C 364.04 141.12 365.88 138.83 364.19 136.51
  A 1.02 0.98 -64.0 0 1 364.00 135.92
  Q 364.01 132.43 363.99 128.95
  C 363.97 126.63 365.14 124.65 365.00 122.11
  A 0.98 0.98 0.0 0 1 365.21 121.45
  Q 365.73 120.77 365.77 120.51
  Q 369.04 101.92 379.97 88.95
  Q 383.71 84.51 385.07 81.60
  A 1.00 1.00 0.0 0 1 386.17 81.04
  Q 387.72 81.35 388.03 79.89
  A 1.02 0.99 88.7 0 1 388.74 79.13
  Q 392.16 78.20 394.42 75.20
  Q 394.57 75.00 394.61 74.75
  Q 395.03 72.13 398.03 73.14
  A 1.02 1.02 0.0 0 0 398.98 72.97
  L 403.67 69.15
  A 1.01 0.98 -61.7 0 1 404.37 68.93
  Q 405.80 69.03 406.00 67.76
  A 0.99 0.99 0.0 0 1 406.83 66.93
  Q 410.18 66.38 412.23 63.42
  A 0.99 0.98 15.2 0 1 412.98 63.00
  Q 414.07 62.91 414.13 61.89
  A 1.00 0.99 -80.8 0 1 415.38 60.98
  Q 416.77 61.35 416.97 59.85
  A 1.00 0.99 4.8 0 1 417.99 58.99
  Q 420.71 59.06 422.46 56.89
  Q 422.63 56.69 422.67 56.42
  Q 422.96 54.62 424.84 54.74
  A 1.02 1.02 0.0 0 0 425.79 54.19
  L 427.25 51.31
  A 0.99 0.99 0.0 0 1 428.08 50.77
  L 428.86 50.72
  A 1.01 1.01 0.0 0 0 429.62 50.30
  C 430.72 48.77 432.38 48.31 433.62 47.06
  C 435.94 44.72 438.93 42.65 440.09 39.51
  A 1.02 0.99 -84.8 0 1 440.82 38.88
  Q 441.94 38.64 442.14 37.48
  A 0.98 0.98 0.0 0 1 442.47 36.90
  Q 445.00 34.68 446.13 31.46
  A 0.51 0.51 0.0 0 1 446.95 31.24
  C 447.25 31.51 448.25 36.14 448.77 37.81
  C 449.29 39.51 448.04 43.15 450.46 43.25
  Z"
/>
<path fill="#0c2947" d="
  M 434.80 86.27
  L 432.21 88.00
  C 405.42 103.44 380.48 119.78 369.14 148.87
  Q 368.83 150.33 368.20 151.65
  Q 366.60 154.98 366.30 151.29
  L 365.63 143.00
  C 365.12 120.92 373.53 98.92 390.43 84.50
  C 398.24 77.84 409.92 72.21 419.84 66.65
  Q 436.85 57.13 450.46 43.25
  C 451.31 42.54 455.37 37.33 455.55 37.38
  A 0.41 0.40 -88.0 0 1 455.86 37.72
  Q 459.19 62.47 441.51 79.52
  Q 438.08 82.83 434.80 86.27
  Z"
/>
<path fill="#eec218" d="
  M 500.00 40.79
  Q 500.33 43.76 499.21 46.44
  Q 498.06 43.42 500.00 40.79
  Z"
/>
<path fill="#eec218" d="
  M 434.80 86.27
  L 435.50 86.79
  Q 434.51 89.14 432.21 88.00
  L 434.80 86.27
  Z"
/>
<path fill="#0c2947" d="
  M 338.58 148.00
  L 338.56 99.00
  A 1.00 1.00 0.0 0 1 339.56 98.00
  L 352.50 98.00
  A 1.00 1.00 0.0 0 1 353.50 99.00
  L 353.50 240.25
  A 1.00 1.00 0.0 0 1 352.50 241.25
  L 339.55 241.25
  A 1.00 1.00 0.0 0 1 338.55 240.23
  L 338.73 228.19
  Q 338.79 224.56 336.09 226.91
  C 312.03 247.83 278.60 245.78 256.99 222.49
  C 228.66 191.96 247.83 142.07 288.20 135.14
  C 307.35 131.86 321.62 137.20 336.49 148.80
  A 1.05 1.05 0.0 0 0 337.12 149.01
  L 337.60 149.00
  A 1.00 0.99 89.7 0 0 338.58 148.00
  Z
  M 338.46 187.71
  A 39.88 39.88 0.0 0 0 298.58 147.83
  A 39.88 39.88 0.0 0 0 258.70 187.71
  A 39.88 39.88 0.0 0 0 298.58 227.59
  A 39.88 39.88 0.0 0 0 338.46 187.71
  Z"
/>
<path fill="#0c2947" d="
  M 500.74 148.67
  Q 500.86 150.81 502.42 149.35
  Q 515.85 136.82 534.27 134.72
  Q 556.72 132.15 573.55 144.65
  C 599.98 164.27 603.63 201.88 579.66 225.17
  C 557.75 246.47 525.14 246.65 502.37 226.23
  Q 500.73 224.76 500.70 226.97
  L 500.55 240.44
  A 1.00 1.00 0.0 0 1 499.54 241.43
  L 487.01 241.30
  A 1.00 1.00 0.0 0 1 486.02 240.30
  L 485.97 99.01
  A 1.01 1.01 0.0 0 1 486.97 98.00
  L 499.57 98.00
  A 1.00 1.00 0.0 0 1 500.58 98.98
  Q 500.93 117.12 500.54 134.81
  Q 500.38 141.87 500.74 148.67
  Z
  M 573.41 164.63
  L 571.32 162.25
  Q 563.54 153.93 555.57 150.75
  C 529.32 140.28 501.93 158.72 500.73 186.74
  C 499.96 204.53 511.66 219.63 527.81 225.41
  C 545.04 231.57 563.28 225.26 573.44 209.94
  Q 588.24 187.65 573.41 164.63
  Z"
/>
<path fill="#0c2947" d="
  M 111.98 163.40
  L 111.98 176.22
  A 0.78 0.78 0.0 0 1 111.20 177.00
  L 50.78 177.00
  A 0.78 0.78 0.0 0 0 50.00 177.78
  L 50.00 226.45
  A 0.78 0.78 0.0 0 0 50.78 227.23
  L 111.20 227.26
  A 0.78 0.78 0.0 0 1 111.98 228.04
  L 112.01 240.73
  A 0.78 0.78 0.0 0 1 111.23 241.51
  L 36.28 241.48
  A 0.78 0.78 0.0 0 1 35.50 240.70
  L 35.50 99.46
  A 0.78 0.78 0.0 0 1 36.28 98.68
  L 111.22 98.77
  A 0.78 0.78 0.0 0 1 112.00 99.55
  L 112.00 112.22
  A 0.78 0.78 0.0 0 1 111.22 113.00
  L 50.78 113.00
  A 0.78 0.78 0.0 0 0 50.00 113.78
  L 50.00 161.86
  A 0.78 0.78 0.0 0 0 50.78 162.64
  L 111.20 162.62
  A 0.78 0.78 0.0 0 1 111.98 163.40
  Z"
/>
<rect fill="#0c2947" x="606.58" y="98.64" width="14.42" height="142.76" rx="0.71"/>
<path fill="#0c2947" d="
  M 871.69 110.69
  Q 871.62 102.62 871.70 99.78
  A 0.99 0.99 0.0 0 1 872.68 98.81
  L 885.98 98.58
  A 1.00 1.00 0.0 0 1 887.00 99.58
  L 887.00 113.00
  A 1.00 1.00 0.0 0 0 888.00 114.00
  L 952.25 114.00
  A 1.00 1.00 0.0 0 1 953.25 115.00
  L 953.25 128.46
  A 1.00 1.00 0.0 0 1 952.25 129.46
  L 888.01 129.46
  A 1.01 1.01 0.0 0 0 887.00 130.46
  Q 886.99 160.81 887.00 191.34
  C 887.01 205.79 896.66 214.74 908.90 220.73
  C 924.38 228.30 944.87 226.40 959.06 215.06
  Q 961.03 213.49 963.04 211.95
  A 1.03 1.01 26.3 0 1 963.65 211.75
  L 981.05 211.75
  A 1.00 1.00 0.0 0 1 981.92 213.24
  C 969.65 235.14 942.23 244.19 918.51 240.54
  C 898.57 237.47 878.62 223.94 873.02 203.86
  Q 871.73 199.26 871.75 191.51
  Q 871.84 128.60 871.69 110.69
  Z"
/>
<path fill="#0c2947" d="
  M 142.37 148.60
  C 178.46 116.68 235.23 139.92 235.46 188.94
  Q 235.58 214.59 235.47 240.26
  A 1.00 0.99 -0.0 0 1 234.47 241.25
  L 221.76 241.25
  A 1.00 1.00 0.0 0 1 220.76 240.25
  Q 220.75 213.99 220.63 187.75
  C 220.43 141.46 154.59 131.63 141.31 177.25
  Q 139.96 181.91 139.98 190.87
  Q 140.03 215.45 139.98 240.40
  A 1.00 1.00 0.0 0 1 138.98 241.40
  L 126.00 241.40
  A 1.00 1.00 0.0 0 1 125.00 240.40
  L 125.00 135.00
  A 1.00 1.00 0.0 0 1 126.00 134.00
  L 138.97 134.00
  A 1.01 1.00 -0.3 0 1 139.98 134.99
  Q 140.03 141.28 139.98 147.57
  C 139.97 149.32 141.32 149.53 142.37 148.60
  Z"
/>
<path fill="#0c2947" d="
  M 474.7979 188.2521
  A 55.24 53.77 0.5 0 1 419.0908 241.5380
  A 55.24 53.77 0.5 0 1 364.3221 187.2879
  A 55.24 53.77 0.5 0 1 420.0292 134.0020
  A 55.24 53.77 0.5 0 1 474.7979 188.2521
  Z
  M 459.68 187.79
  A 40.11 40.11 0.0 0 0 419.57 147.68
  A 40.11 40.11 0.0 0 0 379.46 187.79
  A 40.11 40.11 0.0 0 0 419.57 227.90
  A 40.11 40.11 0.0 0 0 459.68 187.79
  Z"
/>
<path fill="#0c2947" d="
  M 723.76 226.00
  L 723.43 225.99
  A 1.03 1.02 -65.1 0 0 722.76 226.24
  C 713.80 234.08 703.87 239.63 692.03 241.14
  C 672.72 243.59 653.85 236.57 641.58 222.15
  C 628.78 207.11 624.97 184.47 633.30 166.34
  C 638.85 154.26 651.54 141.84 664.25 137.53
  Q 696.25 126.70 722.46 148.77
  A 1.00 1.00 0.0 0 0 723.11 149.01
  L 723.72 149.00
  A 0.99 0.99 0.0 0 0 724.71 148.01
  L 724.75 135.00
  A 1.01 1.00 -89.7 0 1 725.75 134.00
  L 738.50 133.99
  A 1.00 1.00 0.0 0 1 739.50 134.99
  L 739.50 240.25
  A 1.00 1.00 0.0 0 1 738.50 241.25
  L 725.75 241.25
  A 1.00 1.00 0.0 0 1 724.75 240.25
  L 724.75 227.00
  A 1.00 1.00 0.0 0 0 723.76 226.00
  Z
  M 724.37 187.77
  A 40.24 40.24 0.0 0 0 684.13 147.53
  A 40.24 40.24 0.0 0 0 643.89 187.77
  A 40.24 40.24 0.0 0 0 684.13 228.01
  A 40.24 40.24 0.0 0 0 724.37 187.77
  Z"
/>
<path fill="#0c2947" d="
  M 774.53 192.37
  C 764.53 189.15 753.25 180.49 751.05 169.55
  C 747.33 151.08 762.35 138.86 778.59 135.21
  Q 784.05 133.98 797.99 133.99
  Q 828.74 134.01 859.50 134.00
  A 0.99 0.99 0.0 0 1 860.50 134.99
  L 860.50 146.88
  A 1.00 0.99 -89.7 0 1 859.50 147.88
  Q 822.74 147.66 788.51 147.67
  Q 773.45 147.67 767.64 162.05
  Q 767.54 162.28 767.57 162.53
  C 768.98 175.66 778.33 180.83 790.50 180.75
  Q 810.20 180.63 829.90 180.96
  A 0.99 0.98 62.8 0 1 830.48 181.15
  Q 831.20 181.68 832.72 181.98
  C 846.26 184.67 859.73 195.58 860.69 210.03
  C 861.79 226.48 846.45 236.56 832.32 240.07
  Q 827.56 241.25 819.06 241.34
  Q 787.78 241.68 756.50 241.63
  Q 753.51 241.63 752.48 241.47
  Q 750.17 241.10 750.27 238.00
  L 750.60 228.73
  A 1.00 1.00 0.0 0 1 751.59 227.76
  Q 787.99 227.32 824.00 227.55
  Q 825.19 227.55 831.18 225.60
  C 839.22 222.98 845.79 214.66 842.56 206.15
  C 840.17 199.84 830.62 194.45 824.07 195.00
  A 0.99 0.95 55.7 0 1 823.50 194.88
  Q 822.23 194.16 820.25 194.20
  Q 807.71 194.48 789.68 194.16
  Q 779.53 193.98 774.53 192.37
  Z"
/>
<path fill="#f8f8f7" d="
  M 548.75 158.79
  Q 546.26 159.42 544.50 157.54
  Q 547.35 156.02 548.75 158.79
  Z"
/>
<path fill="#eec218" d="
  M 544.50 157.54
  Q 546.26 159.42 548.75 158.79
  L 553.53 160.77
  L 560.30 165.89
  Q 564.57 168.96 567.09 173.71
  Q 568.66 176.69 568.79 177.31
  C 570.28 184.70 570.38 192.18 567.21 199.05
  C 561.47 211.46 551.34 215.88 537.88 216.41
  Q 535.57 216.50 533.29 215.58
  C 529.87 214.20 525.26 213.51 522.68 210.81
  C 518.79 206.73 514.63 202.32 513.02 196.95
  C 508.32 181.33 515.39 165.20 531.02 159.27
  Q 534.80 157.84 544.50 157.54
  Z"
/>
<ellipse fill="#eec218" cx="0.00" cy="0.00" transform="translate(298.47,187.25) rotate(92.5)" rx="29.43" ry="29.00"/>
<path fill="#8cc63e" d="
  M 391.56 182.97
  C 395.29 160.89 419.56 151.60 437.51 164.04
  C 438.40 164.66 439.70 164.82 440.26 166.20
  A 1.02 0.99 -1.0 0 0 440.87 166.77
  L 441.30 166.91
  A 1.04 1.03 -4.7 0 1 441.86 167.38
  C 444.06 171.45 447.09 175.80 447.94 180.18
  Q 451.80 200.21 434.62 212.11
  C 430.51 214.96 421.14 217.62 416.31 216.11
  C 405.86 212.85 398.79 209.14 393.94 199.04
  Q 390.17 191.18 391.56 182.97
  Z"
/>
<path fill="#f8f8f7" d="
  M 553.53 160.77
  Q 555.21 161.15 556.25 162.31
  A 1.03 1.02 -22.9 0 0 557.07 162.64
  Q 560.72 162.37 560.30 165.89
  L 553.53 160.77
  Z"
/>
<path fill="#f8f8f7" d="
  M 571.32 162.25
  L 573.41 164.63
  L 571.36 165.77
  A 1.00 1.00 0.0 0 1 570.64 165.87
  Q 566.30 164.83 571.32 162.25
  Z"
/>
<path fill="#000000" d="
  M 233.70 296.26
  Q 233.04 296.65 232.45 297.20
  C 225.74 303.44 218.49 297.50 217.83 290.09
  C 217.19 282.86 219.34 276.30 227.52 275.74
  Q 230.86 275.51 233.38 277.50
  Q 235.00 278.77 235.00 276.71
  L 235.00 265.64
  A 0.64 0.64 0.0 0 1 235.74 265.01
  L 236.16 265.07
  A 1.01 1.00 4.7 0 1 237.00 266.06
  L 237.00 297.82
  Q 237.00 301.13 235.49 298.18
  Q 235.23 297.68 235.21 297.08
  A 1.01 1.00 73.3 0 0 233.70 296.26
  Z
  M 220.16 291.16
  C 221.22 300.59 234.63 299.61 234.77 290.65
  Q 234.85 285.72 234.56 280.79
  A 1.00 0.97 -66.6 0 0 234.35 280.24
  Q 232.59 277.97 230.18 277.59
  C 220.87 276.12 219.36 284.04 220.16 291.16
  Z"
/>
<rect fill="#000000" x="327.48" y="265.03" width="2.02" height="33.92" rx="0.64"/>
<path fill="#000000" d="
  M 379.97 297.38
  Q 380.45 295.40 378.75 296.52
  Q 371.03 301.65 365.89 297.47
  C 357.12 290.34 365.12 268.31 378.37 277.65
  Q 379.94 278.75 379.94 276.83
  L 379.99 265.40
  A 0.41 0.41 0.0 0 1 380.40 264.99
  L 380.70 265.00
  A 1.00 0.99 0.3 0 1 381.69 265.99
  L 381.75 298.21
  A 0.81 0.80 2.9 0 1 380.86 299.01
  Q 379.61 298.88 379.97 297.38
  Z
  M 367.69 296.56
  Q 374.41 299.83 378.45 294.79
  C 380.76 291.91 379.77 284.43 379.50 280.87
  A 1.06 1.03 22.4 0 0 379.24 280.27
  Q 375.03 275.63 368.99 278.35
  C 363.57 280.79 363.04 294.30 367.69 296.56
  Z"
/>
<path fill="#000000" d="
  M 659.15 297.03
  Q 658.98 294.94 657.46 296.39
  Q 655.48 298.27 653.00 299.11
  C 639.39 303.71 636.39 276.40 651.76 275.65
  Q 655.05 275.49 657.32 277.73
  Q 659.06 279.45 659.03 277.01
  L 658.86 266.14
  A 1.01 1.00 1.8 0 1 659.94 265.13
  L 660.27 265.15
  A 0.81 0.80 2.3 0 1 661.01 265.95
  Q 660.99 281.79 661.01 297.63
  C 661.01 298.46 660.64 299.56 659.61 298.89
  A 0.78 0.78 0.0 0 1 659.25 298.29
  L 659.15 297.03
  Z
  M 647.41 297.08
  Q 647.72 297.40 648.00 297.47
  C 653.17 298.78 658.74 296.66 658.75 290.79
  Q 658.75 285.89 658.75 280.89
  A 1.00 0.99 23.2 0 0 658.47 280.20
  C 653.13 274.63 645.51 276.85 644.02 284.51
  C 643.54 286.99 643.67 296.23 646.86 296.78
  A 1.04 1.01 72.6 0 1 647.41 297.08
  Z"
/>
<rect fill="#000000" x="820.00" y="264.98" width="2.00" height="34.22" rx="0.85"/>
<path fill="#000000" d="
  M 53.44 282.17
  C 55.95 282.26 55.72 284.10 53.41 284.04
  Q 47.31 283.89 41.05 284.08
  A 1.01 1.00 -90.0 0 0 40.08 285.06
  Q 39.92 291.51 40.02 297.83
  C 40.03 298.92 39.29 299.84 38.28 298.82
  A 1.05 1.01 24.3 0 1 38.00 298.12
  L 38.01 267.00
  A 1.00 1.00 0.0 0 1 39.01 266.00
  L 56.91 266.00
  A 1.00 1.00 0.0 0 1 57.82 266.58
  Q 58.45 267.95 56.50 267.94
  Q 48.74 267.91 40.98 268.08
  A 1.00 1.00 0.0 0 0 40.00 269.08
  L 40.00 280.91
  A 1.00 1.00 0.0 0 0 41.00 281.91
  Q 47.28 281.94 53.44 282.17
  Z"
/>
<ellipse fill="#000000" cx="0.00" cy="0.00" transform="translate(252.94,267.82) rotate(2.7)" rx="1.98" ry="1.76"/>
<circle fill="#000000" cx="458.88" cy="267.79" r="1.84"/>
<circle fill="#000000" cx="837.99" cy="267.76" r="1.88"/>
<path fill="#000000" d="
  M 77.3912 299.7500
  A 12.13 10.76 89.9 0 1 66.6100 287.6388
  A 12.13 10.76 89.9 0 1 77.3488 275.4900
  A 12.13 10.76 89.9 0 1 88.1300 287.6012
  A 12.13 10.76 89.9 0 1 77.3912 299.7500
  Z
  M 77.4000 298.1800
  A 10.57 8.69 90.0 0 0 86.0900 287.6100
  A 10.57 8.69 90.0 0 0 77.4000 277.0400
  A 10.57 8.69 90.0 0 0 68.7100 287.6100
  A 10.57 8.69 90.0 0 0 77.4000 298.1800
  Z"
/>
<path fill="#000000" d="
  M 105.37 278.11
  C 106.47 276.78 113.46 273.62 112.99 276.84
  A 0.79 0.79 0.0 0 1 112.15 277.52
  C 100.43 276.79 102.95 291.25 103.00 298.20
  A 1.01 1.01 0.0 0 1 102.45 299.10
  C 101.46 299.60 101.00 298.50 101.00 297.66
  Q 101.00 287.35 101.00 277.04
  A 1.01 1.00 -89.7 0 1 102.00 276.04
  Q 103.08 276.03 102.99 277.78
  C 102.89 279.79 104.64 279.01 105.37 278.11
  Z"
/>
<path fill="#000000" d="
  M 143.68 298.94
  A 1.00 1.00 0.0 0 1 143.00 297.99
  L 143.00 277.23
  A 1.00 1.00 0.0 0 1 144.34 276.29
  L 144.61 276.39
  A 0.80 0.80 0.0 0 1 144.96 277.65
  Q 144.62 278.08 144.76 278.51
  A 0.64 0.64 0.0 0 0 145.77 278.80
  C 147.36 277.51 148.90 275.98 150.93 275.69
  Q 155.49 275.04 157.60 279.31
  Q 158.42 280.98 159.36 279.38
  Q 160.67 277.14 162.90 276.22
  C 166.50 274.72 170.99 276.19 172.55 279.92
  C 174.26 284.01 173.24 293.61 173.27 298.31
  A 0.65 0.64 -85.5 0 1 172.53 298.95
  L 172.15 298.89
  A 1.01 1.01 0.0 0 1 171.31 297.82
  C 171.69 292.95 172.39 281.13 169.32 278.47
  C 166.59 276.10 162.19 277.11 160.31 279.88
  C 157.92 283.39 158.97 294.09 159.00 298.50
  A 0.65 0.64 2.0 0 1 158.30 299.15
  L 157.89 299.11
  A 1.01 1.00 3.1 0 1 156.98 298.10
  C 157.03 293.86 158.01 282.69 156.02 279.29
  C 153.98 275.82 148.48 276.97 146.18 279.86
  C 143.53 283.17 146.09 297.97 144.70 298.93
  Q 144.35 299.16 143.68 298.94
  Z"
/>
<path fill="#000000" d="
  M 271.35 297.42
  C 261.54 289.47 270.62 268.35 284.40 277.89
  A 0.66 0.64 15.9 0 1 284.68 278.38
  C 284.72 279.14 283.98 279.12 283.50 278.83
  Q 278.12 275.57 273.56 278.40
  C 264.54 283.99 270.55 305.61 284.09 295.75
  A 0.65 0.64 -29.8 0 1 285.06 296.01
  C 285.83 297.80 278.77 299.66 278.01 299.72
  Q 274.51 299.98 271.35 297.42
  Z"
/>
<path fill="#000000" d="
  M 490.10 297.35
  C 481.00 304.14 472.23 295.66 473.53 285.78
  C 474.60 277.66 482.65 272.06 490.05 277.65
  Q 491.19 278.51 490.26 278.88
  A 0.81 0.79 -40.3 0 1 489.57 278.83
  C 479.93 273.31 473.95 281.63 475.61 290.63
  C 476.92 297.66 483.02 300.22 489.37 296.21
  C 490.81 295.31 491.69 296.17 490.10 297.35
  Z"
/>
<path fill="#000000" d="
  M 594.19 297.35
  Q 593.94 295.55 592.55 296.74
  Q 589.79 299.10 585.98 299.83
  Q 583.16 300.38 580.81 298.19
  Q 578.60 296.13 578.90 293.51
  C 579.63 287.15 588.85 287.36 593.16 286.55
  A 0.98 0.98 0.0 0 0 593.96 285.69
  C 594.96 277.46 587.74 274.49 581.99 279.55
  C 580.72 280.67 579.34 279.76 581.01 278.38
  C 586.56 273.78 594.76 274.52 595.86 282.95
  Q 596.27 286.10 595.94 298.74
  A 0.41 0.40 -84.6 0 1 595.47 299.14
  L 595.14 299.08
  A 0.99 0.99 0.0 0 1 594.32 298.24
  L 594.19 297.35
  Z
  M 581.39 295.57
  C 584.80 301.58 595.49 296.50 593.65 289.04
  A 0.99 0.99 0.0 0 0 592.70 288.28
  C 589.63 288.22 577.94 289.48 581.39 295.57
  Z"
/>
<path fill="#000000" d="
  M 628.38 283.72
  C 628.39 288.44 628.32 293.31 628.50 298.02
  Q 628.55 299.36 627.23 298.99
  A 1.00 1.00 0.0 0 1 626.51 298.02
  Q 626.53 290.88 626.55 283.77
  C 626.56 274.76 616.31 276.02 612.44 281.33
  A 1.02 0.98 64.0 0 0 612.25 281.92
  L 612.25 298.36
  A 0.64 0.64 0.0 0 1 611.61 299.00
  L 611.32 299.00
  A 0.80 0.80 0.0 0 1 610.52 298.21
  L 610.38 276.82
  A 0.81 0.81 0.0 0 1 610.96 276.04
  C 613.13 275.41 610.78 279.15 613.02 278.99
  A 1.01 0.98 21.4 0 0 613.64 278.73
  C 619.22 273.50 628.36 274.87 628.38 283.72
  Z"
/>
<path fill="#000000" d="
  M 756.25 298.14
  L 756.25 306.73
  A 1.00 1.00 0.0 0 1 755.19 307.73
  L 754.85 307.71
  A 0.42 0.41 2.3 0 1 754.46 307.30
  L 754.41 276.81
  A 0.82 0.80 -8.9 0 1 754.98 276.04
  C 757.18 275.36 754.61 279.37 757.30 279.01
  A 1.00 0.99 -72.7 0 0 757.89 278.70
  C 762.58 273.69 770.60 274.96 772.88 281.35
  C 775.42 288.45 773.20 297.55 765.03 299.66
  C 763.09 300.16 761.57 299.33 759.73 298.73
  A 1.03 0.91 75.1 0 1 759.28 298.43
  Q 758.57 297.60 757.63 297.22
  A 1.00 1.00 0.0 0 0 756.25 298.14
  Z
  M 756.70 294.77
  C 757.21 295.45 759.04 297.25 759.95 297.47
  C 774.13 300.88 773.95 280.58 767.75 277.99
  Q 761.03 275.18 756.68 281.36
  A 1.03 1.01 62.8 0 0 756.50 281.94
  L 756.50 294.17
  A 1.02 0.99 27.4 0 0 756.70 294.77
  Z"
/>
<path fill="#000000" d="
  M 789.14 279.03
  C 789.40 279.10 790.03 278.94 790.27 278.73
  C 804.54 266.66 811.64 290.47 801.97 297.70
  Q 797.50 301.05 790.51 297.83
  A 1.00 0.99 12.4 0 0 789.09 298.73
  Q 789.07 302.12 789.27 305.72
  C 789.33 306.93 788.51 309.05 787.17 307.05
  A 1.02 0.97 -63.2 0 1 787.00 306.49
  L 787.00 276.95
  A 0.81 0.80 -2.8 0 1 787.73 276.15
  Q 789.18 276.03 788.68 278.27
  A 0.64 0.64 0.0 0 0 789.14 279.03
  Z
  M 789.38 294.17
  Q 791.53 297.53 793.51 297.80
  Q 802.86 299.09 804.06 289.94
  C 804.72 284.95 804.30 277.89 797.63 277.37
  Q 792.78 276.99 789.56 280.91
  A 1.03 1.02 65.6 0 0 789.33 281.53
  L 789.22 293.62
  A 0.93 0.92 29.1 0 0 789.38 294.17
  Z"
/>
<path fill="#000000" d="
  M 895.72 289.85
  C 890.93 287.98 879.85 285.10 885.21 278.74
  Q 888.86 274.41 897.23 276.69
  A 1.02 1.01 6.8 0 1 897.97 277.62
  L 897.99 278.15
  Q 898.04 279.42 896.99 278.70
  C 893.97 276.62 887.98 276.10 886.18 279.90
  C 883.48 285.60 893.46 286.30 896.38 288.25
  C 901.01 291.33 898.89 296.77 894.66 298.83
  Q 889.31 301.43 884.01 297.18
  A 0.62 0.61 -70.9 0 1 883.77 296.67
  C 883.78 295.73 884.76 295.89 885.28 296.32
  C 890.50 300.59 900.67 296.82 896.18 290.22
  A 1.06 0.99 -4.2 0 0 895.72 289.85
  Z"
/>
<path fill="#000000" d="
  M 936.52 299.40
  C 924.36 296.50 925.70 276.29 938.24 275.63
  C 938.98 275.59 947.66 277.48 945.05 278.85
  A 0.81 0.79 46.7 0 1 944.26 278.82
  C 929.99 270.23 924.72 294.50 936.33 297.79
  Q 940.53 298.98 944.42 296.07
  C 944.88 295.73 945.55 295.45 945.87 296.05
  A 0.51 0.51 0.0 0 1 945.76 296.68
  Q 941.31 300.54 936.52 299.40
  Z"
/>
<path fill="#000000" d="
  M 188.48 287.36
  Q 188.06 289.93 189.49 293.05
  C 192.35 299.29 199.24 299.48 203.97 295.74
  A 0.82 0.80 34.6 0 1 204.73 295.61
  C 208.49 296.92 196.95 299.90 196.74 299.93
  Q 195.24 300.19 192.81 298.92
  Q 187.28 296.05 186.49 289.76
  C 184.35 272.72 205.76 270.97 205.95 285.45
  A 1.01 1.01 0.0 0 1 204.95 286.47
  L 189.46 286.52
  A 0.99 0.99 0.0 0 0 188.48 287.36
  Z
  M 189.81 285.22
  L 202.88 285.26
  A 1.00 1.00 0.0 0 0 203.87 284.11
  Q 202.84 277.23 196.52 277.39
  Q 193.34 277.47 191.33 279.22
  Q 189.25 281.05 188.82 284.09
  A 1.00 0.99 4.0 0 0 189.81 285.22
  Z"
/>
<path fill="#000000" d="
  M 310.04 296.60
  Q 308.48 297.52 306.66 298.51
  C 297.16 303.64 291.27 291.41 300.72 288.06
  Q 304.96 286.55 309.66 286.80
  A 0.99 0.99 0.0 0 0 310.70 285.93
  C 311.80 277.21 304.68 274.25 298.80 279.75
  A 0.80 0.79 45.8 0 1 297.69 279.73
  L 297.47 279.51
  A 0.41 0.41 0.0 0 1 297.49 278.91
  C 301.83 275.13 309.39 273.83 311.96 279.63
  C 313.65 283.45 312.64 292.54 312.95 297.77
  A 1.01 1.00 -10.5 0 1 312.25 298.78
  Q 310.74 299.26 311.22 297.50
  Q 311.75 295.59 310.04 296.60
  Z
  M 298.63 291.31
  C 294.27 300.17 310.20 299.84 310.53 292.32
  Q 310.60 290.70 310.38 289.06
  A 0.99 0.98 -3.9 0 0 309.39 288.20
  Q 303.86 288.23 299.05 290.87
  A 0.99 0.97 89.3 0 0 298.63 291.31
  Z"
/>
<path fill="#000000" d="
  M 398.11 286.47
  A 1.00 0.99 -87.5 0 0 397.12 287.38
  Q 396.63 292.56 399.90 295.73
  C 403.44 299.18 408.67 298.69 412.50 295.96
  A 1.05 1.01 -60.2 0 1 413.11 295.78
  C 414.92 295.82 413.66 297.04 413.03 297.39
  C 408.30 299.98 402.26 300.76 398.43 296.79
  C 394.53 292.73 393.88 285.10 396.79 280.32
  C 401.65 272.33 415.28 275.00 414.34 285.57
  A 1.01 1.00 -87.5 0 1 413.34 286.49
  L 398.11 286.47
  Z
  M 406.54 277.55
  Q 399.51 276.40 397.63 284.00
  A 1.00 1.00 0.0 0 0 398.60 285.24
  L 411.62 285.25
  A 1.00 0.99 -1.1 0 0 412.62 284.22
  C 412.48 280.49 410.27 278.16 406.54 277.55
  Z"
/>
<path fill="#000000" d="
  M 503.65 294.40
  C 500.45 288.86 501.21 279.75 507.86 276.65
  C 514.61 273.52 521.68 278.01 521.51 285.52
  A 1.00 1.00 0.0 0 1 520.51 286.50
  L 505.05 286.50
  A 1.00 0.99 -87.1 0 0 504.06 287.40
  Q 503.47 293.22 507.38 296.34
  C 510.90 299.14 515.77 298.40 519.31 295.98
  A 1.04 1.01 28.3 0 1 519.91 295.81
  Q 522.10 295.87 519.89 297.41
  C 514.86 300.91 507.17 300.51 503.65 294.40
  Z
  M 516.31 278.19
  Q 511.04 275.30 506.26 279.47
  Q 504.24 281.22 504.22 284.49
  A 1.00 1.00 0.0 0 0 505.22 285.50
  L 518.63 285.50
  A 1.00 0.99 0.3 0 0 519.63 284.52
  Q 519.72 280.05 516.31 278.19
  Z"
/>
<path fill="#000000" d="
  M 546.20 278.75
  C 538.71 273.60 529.86 282.49 538.55 285.51
  C 541.92 286.68 545.76 287.18 547.44 290.16
  C 549.75 294.27 546.63 297.99 542.79 299.31
  Q 538.19 300.90 533.79 297.48
  Q 532.04 296.12 534.01 296.07
  A 1.01 0.98 63.5 0 1 534.67 296.30
  C 539.56 300.35 549.39 297.77 545.57 290.38
  A 1.03 0.98 87.5 0 0 545.11 289.94
  C 542.00 288.43 537.43 287.51 535.27 285.66
  C 532.04 282.89 533.43 278.51 536.89 276.69
  Q 541.67 274.18 546.70 277.32
  Q 548.12 278.22 547.03 278.80
  A 0.82 0.82 0.0 0 1 546.20 278.75
  Z"
/>
<path fill="#000000" d="
  M 706.55 294.74
  C 709.41 285.12 689.92 290.94 694.61 278.25
  A 1.07 1.00 -7.3 0 1 695.03 277.74
  Q 701.45 273.88 707.02 277.23
  C 707.51 277.53 708.61 278.51 707.62 278.89
  A 0.97 0.96 -38.5 0 1 706.70 278.79
  C 698.62 273.25 690.59 283.05 699.29 285.67
  Q 701.01 286.19 702.75 286.72
  C 716.50 290.96 704.08 305.26 693.98 297.30
  A 1.02 1.02 0.0 0 1 693.61 296.63
  Q 693.44 295.22 694.98 296.29
  C 698.27 298.58 705.09 299.66 706.55 294.74
  Z"
/>
<path fill="#000000" d="
  M 871.03 296.96
  C 856.25 307.36 846.11 286.00 856.92 277.71
  C 862.89 273.13 873.87 277.39 871.82 285.74
  A 1.00 1.00 0.0 0 1 870.85 286.50
  L 855.43 286.50
  A 1.00 1.00 0.0 0 0 854.43 287.47
  C 854.18 296.69 862.68 301.48 870.21 295.78
  A 0.78 0.78 0.0 0 1 871.00 295.69
  C 871.74 296.00 871.62 296.55 871.03 296.96
  Z
  M 868.54 279.87
  C 864.09 274.47 856.91 277.76 855.02 283.96
  A 1.00 1.00 0.0 0 0 855.98 285.25
  L 869.01 285.25
  A 1.00 1.00 0.0 0 0 870.01 284.25
  Q 870.02 281.67 868.54 279.87
  Z"
/>
<path fill="#000000" d="
  M 967.1540 299.7795
  A 12.15 10.71 90.5 0 1 956.5504 287.5365
  A 12.15 10.71 90.5 0 1 967.3660 275.4805
  A 12.15 10.71 90.5 0 1 977.9696 287.7235
  A 12.15 10.71 90.5 0 1 967.1540 299.7795
  Z
  M 975.5822 285.1027
  A 7.64 7.64 0.0 0 0 968.0092 277.3963
  L 966.6492 277.3845
  A 7.64 7.64 0.0 0 0 958.9428 284.9575
  L 958.8978 290.1173
  A 7.64 7.64 0.0 0 0 966.4708 297.8237
  L 967.8308 297.8355
  A 7.64 7.64 0.0 0 0 975.5372 290.2625
  L 975.5822 285.1027
  Z"
/>
<rect fill="#000000" x="252.00" y="275.98" width="2.00" height="23.22" rx="0.85"/>
<path fill="#000000" d="
  M 434.47 298.91
  A 1.02 1.02 0.0 0 1 433.95 298.39
  Q 429.63 288.39 425.49 278.33
  C 425.20 277.61 423.21 275.18 426.25 276.28
  A 1.02 0.99 -1.0 0 1 426.84 276.83
  L 434.25 294.68
  Q 435.17 296.89 436.10 294.69
  L 443.72 276.58
  A 1.02 0.99 1.0 0 1 444.33 276.01
  Q 445.89 275.50 445.16 277.24
  Q 440.70 287.81 436.23 298.34
  Q 435.76 299.46 434.47 298.91
  Z"
/>
<rect fill="#000000" x="458.00" y="275.97" width="1.96" height="23.20" rx="0.93"/>
<path fill="#000000" d="
  M 737.78 293.69
  L 737.90 276.90
  A 0.81 0.80 89.6 0 1 738.68 276.10
  L 738.96 276.10
  A 1.00 1.00 0.0 0 1 739.99 277.09
  C 740.00 279.61 740.42 298.22 739.60 299.00
  Q 739.17 299.40 738.57 299.13
  A 1.00 1.00 0.0 0 1 738.02 297.97
  Q 738.21 297.23 737.99 296.69
  A 1.00 1.00 0.0 0 0 736.36 296.36
  C 730.70 302.00 721.85 300.60 721.59 291.46
  Q 721.39 284.23 721.57 277.04
  A 1.01 1.00 88.4 0 1 722.48 276.07
  L 722.84 276.04
  A 0.65 0.64 -2.0 0 1 723.54 276.69
  C 723.40 284.00 721.03 298.45 729.60 298.07
  Q 734.17 297.87 737.50 294.37
  A 1.05 1.03 -23.3 0 0 737.78 293.69
  Z"
/>
<rect fill="#000000" x="837.00" y="275.98" width="2.00" height="23.24" rx="0.98"/>
<path fill="#f8f8f7" d="
  M 189.81 285.22
  A 1.00 0.99 4.0 0 1 188.82 284.09
  Q 189.25 281.05 191.33 279.22
  Q 193.34 277.47 196.52 277.39
  Q 202.84 277.23 203.87 284.11
  A 1.00 1.00 0.0 0 1 202.88 285.26
  L 189.81 285.22
  Z"
/>
<path fill="#f8f8f7" d="
  M 406.54 277.55
  C 410.27 278.16 412.48 280.49 412.62 284.22
  A 1.00 0.99 -1.1 0 1 411.62 285.25
  L 398.60 285.24
  A 1.00 1.00 0.0 0 1 397.63 284.00
  Q 399.51 276.40 406.54 277.55
  Z"
/>
<path fill="#f8f8f7" d="
  M 234.77 290.65
  C 234.63 299.61 221.22 300.59 220.16 291.16
  C 219.36 284.04 220.87 276.12 230.18 277.59
  Q 232.59 277.97 234.35 280.24
  A 1.00 0.97 -66.6 0 1 234.56 280.79
  Q 234.85 285.72 234.77 290.65
  Z"
/>
<path fill="#f8f8f7" d="
  M 868.54 279.87
  Q 870.02 281.67 870.01 284.25
  A 1.00 1.00 0.0 0 1 869.01 285.25
  L 855.98 285.25
  A 1.00 1.00 0.0 0 1 855.02 283.96
  C 856.91 277.76 864.09 274.47 868.54 279.87
  Z"
/>
<path fill="#f8f8f7" d="
  M 310.53 292.32
  C 310.20 299.84 294.27 300.17 298.63 291.31
  A 0.99 0.97 89.3 0 1 299.05 290.87
  Q 303.86 288.23 309.39 288.20
  A 0.99 0.98 -3.9 0 1 310.38 289.06
  Q 310.60 290.70 310.53 292.32
  Z"
/>
<path fill="#f8f8f7" d="
  M 581.39 295.57
  C 577.94 289.48 589.63 288.22 592.70 288.28
  A 0.99 0.99 0.0 0 1 593.65 289.04
  C 595.49 296.50 584.80 301.58 581.39 295.57
  Z"
/>
<rect fill="#000000" x="-1.91" y="-1.85" transform="translate(913.35,297.58) rotate(44.7)" width="3.82" height="3.70" rx="1.14"/>
</svg>
